#!OML:ASF X:\für Bonn\!DataBase\2005_08_12_Daniel\c3d\Daniel.ASF
:FULLY-SPECIFIED
:DEGREES
2253
root -4.40852 16.6332 14.4028 -532.889 45.2816 -522.447
lowerback 16.3259 -0.247873 4.36344
upperback 3.13835 0.65491 -0.543115
thorax -5.74695 0.359054 -3.20217
lowerneck -5.86519 8.98946 -1.50324
upperneck -4.51475 12.2219 -9.01613
head 0.0699965 6.23788 -2.30974
rclavicle 1.32987e-013 -2.06736e-014
rhumerus -56.5304 16.7472 -107.318
rradius 86.0525
rwrist -2.83833
rhand -24.7674 32.2984
rfingers 7.12502
rthumb 1.73617 2.32573
lclavicle 1.32987e-013 -2.06736e-014
lhumerus -64.2761 3.30162 92.1612
lradius 109.809
lwrist 18.1518
lhand -7.62819 -12.7523
lfingers 7.12502
lthumb 18.2666 16.4101
rfemur 3.03486 -5.70339 20.0291
rtibia 75.3434
rfoot 3.59782 2.8252
rtoes -19.8483
lfemur -22.7984 9.54923 -27.8594
ltibia 54.2676
lfoot -24.5012 5.94432
ltoes 13.2834
2254
root -4.21157 16.5188 14.2373 -533.72 44.5197 -523.173
lowerback 16.4837 -0.404955 3.85759
upperback 3.33907 0.37055 -0.740556
thorax -5.64488 0.240895 -3.06674
lowerneck -5.57549 9.17279 -1.45224
upperneck -5.22315 12.4192 -9.33923
head -0.167833 6.37761 -2.45431
rclavicle 6.10269e-014 6.36111e-015
rhumerus -55.7378 15.2768 -106.541
rradius 84.1923
rwrist -2.47115
rhand -25.1797 32.0414
rfingers 7.12502
rthumb 1.33801 2.06587
lclavicle 6.10269e-014 6.36111e-015
lhumerus -62.2562 3.63457 92.3253
lradius 110.303
lwrist 17.9348
lhand -8.01641 -12.736
lfingers 7.12502
lthumb 17.8931 16.4609
rfemur 1.24694 -5.89867 19.2823
rtibia 78.449
rfoot 2.83766 2.30893
rtoes -19.1891
lfemur -22.1606 8.84369 -28.2828
ltibia 55.5769
lfoot -26.006 5.94824
ltoes 13.2807
2255
root -4.01639 16.4156 14.0678 -534.427 43.7758 -523.852
lowerback 16.7079 -0.522698 3.23582
upperback 3.40391 0.120572 -0.815774
thorax -5.71851 0.131678 -2.74283
lowerneck -5.1339 9.36393 -1.36322
upperneck -5.88697 12.6231 -9.83513
head -0.402072 6.52514 -2.6705
rclavicle 2.22639e-014 2.06736e-014
rhumerus -55.1809 13.7422 -105.569
rradius 82.4311
rwrist -2.04128
rhand -25.627 31.8416
rfingers 7.12502
rthumb 0.906028 1.86374
lclavicle 2.22639e-014 2.06736e-014
lhumerus -60.4259 4.0394 92.708
lradius 110.916
lwrist 17.6103
lhand -8.50828 -12.6101
lfingers 7.12502
lthumb 17.4197 16.6293
rfemur -0.67035 -5.87621 18.6922
rtibia 81.244
rfoot 2.19036 1.42664
rtoes -17.598
lfemur -21.44 8.31537 -28.6247
ltibia 56.7204
lfoot -27.5858 5.69725
ltoes 13.4843
2256
root -3.82528 16.32 13.8968 -535.045 43.0055 -524.482
lowerback 16.9518 -0.642681 2.55428
upperback 3.45338 -0.142658 -0.848651
thorax -5.81456 0.016747 -2.33557
lowerneck -4.88128 9.5927 -1.15243
upperneck -6.39638 12.8883 -10.3698
head -0.542248 6.69185 -2.90378
rclavicle -1.43125e-014 5.56597e-014
rhumerus -54.7747 12.2683 -104.509
rradius 80.7099
rwrist -1.51505
rhand -26.2205 31.7945
rfingers 7.12502
rthumb 0.332765 1.81504
lclavicle -1.43125e-014 5.56597e-014
lhumerus -58.5844 4.52239 93.14
lradius 111.537
lwrist 17.0604
lhand -9.01305 -12.6125
lfingers 7.12502
lthumb 16.9339 16.6693
rfemur -2.75628 -5.91009 18.1268
rtibia 83.8911
rfoot 1.64121 0.482899
rtoes -15.8262
lfemur -20.6247 8.06677 -28.86
ltibia 57.6698
lfoot -29.1422 5.05439
ltoes 14.0069
2257
root -3.63834 16.2328 13.7193 -535.542 42.2236 -525.05
lowerback 17.1685 -0.778678 1.86153
upperback 3.46022 -0.434166 -0.840964
thorax -5.93585 -0.113414 -1.87073
lowerneck -4.63759 9.87653 -0.894309
upperneck -6.84049 13.227 -10.8906
head -0.652993 6.89098 -3.13785
rclavicle 1.31198e-014 -1.43125e-014
rhumerus -54.6403 10.8523 -103.393
rradius 79.1343
rwrist -0.947436
rhand -26.8869 31.9518
rfingers 7.12502
rthumb -0.310866 1.97226
lclavicle 1.31198e-014 -1.43125e-014
lhumerus -56.6804 5.2154 93.635
lradius 112.104
lwrist 16.3709
lhand -9.47704 -12.6566
lfingers 7.12502
lthumb 16.4872 16.6629
rfemur -4.94153 -6.02297 17.5584
rtibia 86.3349
rfoot 1.11815 -0.424498
rtoes -14.3172
lfemur -19.7319 7.91897 -29.0324
ltibia 58.3903
lfoot -30.6865 4.25357
ltoes 14.5245
2258
root -3.45836 16.1565 13.5333 -535.963 41.4186 -525.551
lowerback 17.3668 -0.944294 1.25523
upperback 3.45732 -0.752981 -0.822951
thorax -6.05194 -0.257775 -1.43622
lowerneck -4.45378 10.1941 -0.640696
upperneck -7.16611 13.6188 -11.3346
head -0.716637 7.10796 -3.33772
rclavicle 2.48481e-014 4.45278e-014
rhumerus -54.6679 9.53042 -102.266
rradius 77.6837
rwrist -0.349287
rhand -27.6581 32.1705
rfingers 7.12502
rthumb -1.05574 2.19332
lclavicle 2.48481e-014 4.45278e-014
lhumerus -54.8091 5.95984 94.193
lradius 112.679
lwrist 15.7136
lhand -9.96166 -12.7788
lfingers 7.12502
lthumb 16.0206 16.5788
rfemur -7.13236 -6.13961 17.0135
rtibia 88.5367
rfoot 0.509693 -1.28904
rtoes -13.0105
lfemur -18.7225 7.69633 -29.1904
ltibia 58.8679
lfoot -32.1284 3.52633
ltoes 14.8173
2259
root -3.28272 16.0938 13.3378 -536.305 40.6137 -525.973
lowerback 17.5292 -1.12773 0.73392
upperback 3.43646 -1.08382 -0.787907
thorax -6.1622 -0.409488 -1.02757
lowerneck -4.23098 10.5195 -0.41523
upperneck -7.45902 14.0214 -11.7287
head -0.7791 7.3293 -3.51882
rclavicle 3.24019e-014 -2.8625e-014
rhumerus -55.0184 8.33786 -101.156
rradius 76.4569
rwrist 0.267532
rhand -28.5213 32.3981
rfingers 7.12502
rthumb -1.88939 2.42676
lclavicle 3.24019e-014 -2.8625e-014
lhumerus -53.0483 6.73824 94.8348
lradius 113.272
lwrist 15.0608
lhand -10.5232 -13.111
lfingers 7.12502
lthumb 15.4798 16.2893
rfemur -9.31193 -6.16032 16.5519
rtibia 90.4289
rfoot -0.126487 -2.07024
rtoes -11.1452
lfemur -17.6037 7.42851 -29.3529
ltibia 59.0906
lfoot -33.3839 3.03215
ltoes 15.0209
